<?xml version="1.0" encoding="iso-8859-1"?>
<!-- Uploaded to: SVG Repo, www.svgrepo.com, Generator: SVG Repo Mixer Tools -->
<svg height="800px" width="800px" version="1.1" id="Capa_1" xmlns="http://www.w3.org/2000/svg" xmlns:xlink="http://www.w3.org/1999/xlink" 
	 viewBox="0 0 163.695 163.695" xml:space="preserve">
<g>
	<path style="fill:#010002;" d="M78.709,71.018c-5.036-0.985-9.034-2.745-12.011-5.263c-2.971-2.524-4.451-6.003-4.451-10.46
		c0-3.688,1.253-7.22,3.777-10.591c2.524-3.371,6.749-5.173,12.686-5.4C78.709,39.304,78.709,71.018,78.709,71.018z M85.123,142.936
		v0.477h-0.656c-7.118,5.09-14.499,9.637-22.089,13.437c6.235,1.617,12.733,2.566,19.47,2.566c42.842,0,77.569-34.727,77.569-77.569
		c0-11.91-2.763-23.151-7.56-33.235C143.629,84.33,117.506,119.612,85.123,142.936z M4.278,81.848
		c0-42.842,34.727-77.569,77.569-77.569c23.551,0,44.638,10.502,58.869,27.072c0.686-2.482,1.414-4.964,1.963-7.453
		C144.53,15.52,145.448,7.53,145.538,0c3.67,11.767,4.105,25.843,0.627,41.613c-8.718,39.566-39.584,78.745-76.68,101.848
		c-5.12,3.783-10.317,7.411-15.687,10.639c-0.776-0.304-1.516-0.662-2.279-0.99c-8.431,3.843-17.023,6.898-25.646,8.801
		c-3.67,0.817-7.238,1.384-10.716,1.784c10.066-3.544,19.977-8.27,29.614-13.831C20.669,136.701,4.278,111.234,4.278,81.848z
		 M78.709,83.297v36.774c-7.608-0.627-12.823-3.485-15.633-8.58c-1.587-2.834-2.56-7.333-2.924-13.497h-11.94
		c0,7.739,1.277,13.879,3.843,18.42c4.034,7.262,11.224,11.689,21.517,13.312c3.956-3.264,7.817-6.653,11.558-10.197V84.903
		c5.615,1.528,9.625,3.139,12.005,4.845c3.568,2.518,5.501,6.092,5.997,10.615c3.401-4.075,6.659-8.24,9.738-12.524
		c-1.492-2.882-3.634-5.346-6.486-7.333c-3.735-2.566-10.818-5.311-21.254-8.228V39.411c6.212,0.221,10.722,2.608,13.557,7.148
		c1.533,2.476,2.452,5.418,2.769,8.837h11.808c-0.227-7.626-2.733-13.766-7.53-18.408c-4.791-4.642-11.665-7.28-20.616-7.906v-8.837
		h-6.408v8.974c-9.046,0.089-16.069,2.876-21.087,8.366s-7.524,11.647-7.524,18.491c0,7.644,2.327,13.628,6.981,17.948
		C61.727,78.369,68.941,81.454,78.709,83.297z"/>
</g>
</svg>