<?xml version="1.0" encoding="utf-8"?>
<!-- Svg Vector Icons : http://www.onlinewebfonts.com/icon -->
<!DOCTYPE svg PUBLIC "-//W3C//DTD SVG 1.1//EN" "http://www.w3.org/Graphics/SVG/1.1/DTD/svg11.dtd">
<svg version="1.1" xmlns="http://www.w3.org/2000/svg" xmlns:xlink="http://www.w3.org/1999/xlink" x="0px" y="0px" viewBox="0 0 1000 1000" enable-background="new 0 0 1000 1000" xml:space="preserve">
<metadata> Svg Vector Icons : http://www.onlinewebfonts.com/icon </metadata>
<g><g transform="translate(0.000000,511.000000) scale(0.100000,-0.100000)"><path d="M4223.3,4973.6c-356-45.3-681.8-110-1003.3-196.3c-1201.8-330.1-2099.4-970.9-2343.2-1674.4C825,2954,805.6,2923.8,706.3,2844c-174.8-138.1-360.3-375.4-463.9-589c-123-254.6-148.9-381.9-135.9-671c8.6-207.1,19.4-258.9,88.5-431.5L274.8,956l-53.9-107.9C59,511.6,61.2,36.9,225.2-286.8l53.9-107.9L223-515.5C136.7-711.8,100-878,100-1100.2c0-220.1,32.4-375.4,118.7-569.6l53.9-120.8l-51.8-112.2c-82-179.1-118.7-356-118.7-561c0-237.3,28-375.4,123-578.3C626.5-3918.1,1966.4-4535.2,3932-4751c351.7-38.8,1784.4-38.8,2136.1,0c1959.2,213.6,3296.9,828.5,3702.5,1698.1c99.3,213.6,127.3,347.4,127.3,589c0,205-36.7,381.9-118.7,561l-51.8,112.2l51.8,116.5c97.1,220.1,123,368.9,114.4,638.7c-8.6,222.2-17.3,267.6-86.3,440.2l-77.7,189.9l51.7,112.2c159.7,349.5,157.5,806.9-4.3,1143.5l-53.9,110l53.9,118.7c116.5,258.9,153.2,591.2,97.1,867.4c-58.2,289.1-327.9,699.1-595.5,912.7c-86.3,66.9-112.2,103.6-123,164c-19.4,125.1-194.2,448.8-323.7,606.3c-526.4,636.5-1557.8,1115.5-2828.7,1316.2C5630.1,5003.8,4598.7,5018.9,4223.3,4973.6z M5574,4378.1c1361.5-131.6,2569.8-684,2921.5-1335.6c64.7-123,75.5-159.7,75.5-291.3c-2.1-112.2-12.9-172.6-47.4-239.5c-230.9-435.8-1165.1-686.1-2912.9-783.2c-401.3-21.6-483.3-49.6-552.3-181.3c-64.7-127.3-54-267.6,56.1-640.8c228.7-774.6,258.9-1001.1,155.3-1225.5c-107.9-237.3-282.7-360.3-507-360.3c-228.7,2.2-407.8,120.8-517.8,345.2c-45.3,92.8-53.9,135.9-51.8,312.9c2.2,183.4,15.1,252.4,135.9,668.9c196.3,675.3,200.7,910.5,21.6,1042.1c-41,28.1-129.5,49.6-302.1,71.2c-135.9,15.1-351.7,45.3-483.3,64.7c-293.4,43.2-379.8,25.9-491.9-97.1c-92.8-103.6-123-194.2-138.1-433.7c-15.1-235.2,34.5-604.1,146.7-1122c228.7-1048.6,239.5-1102.5,241.7-1359.3c4.3-241.7,2.2-252.5-66.9-394.8c-118.7-241.7-332.3-379.7-548.1-353.9c-217.9,25.9-494.1,250.3-565.3,459.6c-60.4,179.1-49.6,319.3,170.5,2118.8c53.9,431.5,97.1,819.9,97.1,865.2c0,269.7-153.2,470.4-498.4,651.6c-304.2,157.5-390.5,230.8-450.9,366.8c-62.6,146.7-51.8,306.4,34.5,485.5c79.8,164,390.5,479,623.6,632.2c554.5,364.6,1376.6,632.2,2211.6,725C4644,4404,5265.4,4408.3,5574,4378.1z M1200.4,2336.9c71.2-140.2,237.3-276.2,520-433.7c319.3-174.8,366.8-228.7,366.8-412.1c0-66.9-23.7-315-53.9-552.4c-30.2-237.3-53.9-444.5-53.9-457.4c0-47.5-56.1-32.4-267.5,69.1c-438,207.1-794,507-930,776.8c-58.3,114.4-64.7,151-64.7,323.7c0,176.9,6.5,209.3,71.2,338.8c60.4,125.1,315,427.2,358.2,427.2C1152.9,2416.8,1176.7,2380.1,1200.4,2336.9z M9004.6,2274.4c82-84.2,166.2-198.5,207.2-284.8c64.7-129.5,71.2-161.8,71.2-338.8c0-172.6-6.4-209.3-64.7-323.7C8873,641,7572,118.9,5817.8-32.2l-164-15.1l-12.9,131.6c-17.3,153.2-86.3,442.3-222.2,904c-51.8,181.3-95,347.4-95,369c0,36.7,25.9,41,287,56.1c1406.8,71.2,2336.7,258.9,2813.6,569.6c146.7,94.9,306.4,252.5,364.6,358.2c21.6,41,49.6,75.5,60.4,75.5C8860.1,2416.8,8929.1,2352.1,9004.6,2274.4z M3791.8,1478.2c438-53.9,394.8-34.5,377.6-176.9c-8.6-66.9-73.4-325.8-142.4-576.1c-71.2-250.3-133.8-504.9-140.2-565.3C3865.1-8.4,3869.4-6.3,3638.6,26.1l-202.8,28L3399.1,203c-123,485.5-183.4,1139.2-120.8,1277.3C3308.4,1545.1,3265.3,1545.1,3791.8,1478.2z M1170.2,414.5c131.6-82,498.4-263.2,643-317.2c62.6-23.7,101.4-51.8,101.4-73.3c2.2-107.9-97.1-886.8-112.2-886.8c-10.8,0-88.5,34.5-172.6,77.7c-405.6,205-722.8,479-841.5,733.6C725.7,80,717.1,118.9,717.1,280.7c0,144.6,10.8,205,47.5,287l49.6,105.7l123-94.9C1006.2,526.7,1111.9,453.3,1170.2,414.5z M9265.7,477.1c153.2-528.6-328-1061.6-1290.3-1434.8c-1024.9-394.9-2481.3-561-3881.6-442.3c-358.2,32.4-444.5,47.5-435.9,84.1c12.9,53.9-41,483.3-90.6,729.3l-49.6,246l120.8-12.9c289.1-32.4,276.2-25.9,349.5-166.1c86.3-159.7,263.2-328,422.9-403.5c112.2-51.8,151-58.3,351.7-58.3c205,0,237.3,6.5,351.7,62.6c148.9,73.3,327.9,243.8,403.5,384.1c60.4,114.3,0,99.2,539.4,146.7C7272.1-276,8473.9,110.3,9067.2,580.6C9194.5,679.9,9207.5,673.4,9265.7,477.1z M1053.7-880.1c88.5-62.6,287-176.9,442.3-254.6l282.7-140.3l25.9-142.4c38.8-209.3,120.8-362.5,282.7-526.5c233-235.2,550.2-356,798.3-302.1c226.6,49.6,468.2,220.1,597.7,425.1c34.5,51.8,75.5,94.9,97.1,94.9c19.4,0,164-17.3,323.6-36.7c422.9-53.9,1756.3-53.9,2207.3,0c1037.8,125.2,1836.2,338.8,2474.9,666.7c174.7,88.5,310.7,176.9,558.8,358.2c34.6,25.9,43.2,19.4,88.5-64.7c41-77.7,49.6-125.1,49.6-287c0-164-8.6-211.5-56.1-312.9c-306.4-651.6-1428.4-1143.6-3072.5-1350.7c-433.7-53.9-1557.8-66.9-2054.1-21.6c-1724,155.4-3001.3,681.8-3327.1,1372.3c-47.5,101.4-56.1,148.9-56.1,312.9c0,161.8,8.6,209.3,49.6,287c45.3,84.2,53.9,90.6,88.5,64.7C876.8-752.8,967.4-817.5,1053.7-880.1z M1176.7-2338.7c658.1-399.2,1609.6-675.4,2787.7-804.8c468.2-51.8,1603.2-51.8,2071.3,0c981.7,107.9,1788.7,310.7,2390.7,597.7c310.7,148.9,487.6,254.6,645.2,381.9L9188-2069l47.5-103.6c36.7-82,47.5-142.4,47.5-297.8c0-170.4-8.6-209.3-62.6-321.5c-79.8-164-319.3-416.4-528.6-554.5c-589-394.9-1486.6-660.3-2710-800.5c-317.2-36.7-1646.3-36.7-1963.5,0c-1216.9,140.3-2112.3,401.3-2694.9,789.7c-222.2,146.7-461.7,397-543.7,565.3c-53.9,112.2-62.6,151-62.6,321.5c0,155.4,10.8,215.8,47.5,297.8L812-2069l116.5-94.9C991.1-2215.7,1103.3-2293.4,1176.7-2338.7z"/><path d="M4212.5,4080.3c-103.6-43.1-185.6-168.3-369-571.8c-166.1-362.5-189.9-427.2-189.9-530.8c2.2-142.4,41-224.4,157.5-330.1l88.5-79.8h1098.2h1098.2l66.9,56.1c118.7,99.2,183.4,235.2,181.3,384.1c0,120.8-15.1,164-194.2,530.8c-187.7,388.4-265.4,502.7-368.9,541.6C5718.6,4104.1,4270.8,4104.1,4212.5,4080.3z M5876.1,3329.5l157.5-459.6H5000H3966.5l148.9,438c84.1,239.5,155.4,448.8,161.8,463.9c6.5,21.6,164,25.9,725,21.6l716.4-6.5L5876.1,3329.5z"/></g></g>
</svg>